<svg xmlns="http://www.w3.org/2000/svg" width="75.184" height="85.631" viewBox="0 0 75.184 85.631">
  <g id="Data_people" data-name="Data people" transform="translate(-22.447 -17.212)">
    <path id="Path_13189" data-name="Path 13189" d="M61.764,26.64a29.388,29.388,0,0,1-30.122,0A24.171,24.171,0,0,0,9.16,50.713v4.065a9.453,9.453,0,0,0,9.4,9.478H74.891A9.453,9.453,0,0,0,84.344,54.8v-4.09A24.171,24.171,0,0,0,61.764,26.64Z" transform="translate(13.287 38.586)" fill="#5e35b1"/>
    <path id="Path_13190" data-name="Path 13190" d="M29.7,49.228,36.41,31.84l7.249,17.388L36.41,42.15Z" transform="translate(43.049 46.121)" fill="#fff"/>
    <path id="Path_13191" data-name="Path 13191" d="M45.849,20.8a15.5,15.5,0,0,1-21.649,0H17a21.184,21.184,0,0,0,36.147,0Z" transform="translate(24.647 30.124)" fill="#5e35b1"/>
    <path id="Path_13192" data-name="Path 13192" d="M59.137,29.5H21.349a7.984,7.984,0,0,1-7.959-7.984V20.294a7.984,7.984,0,0,1,7.959-7.984H59.137a7.984,7.984,0,0,1,7.984,7.984v1.224A7.984,7.984,0,0,1,59.137,29.5ZM21.349,18.041a2.253,2.253,0,0,0-2.229,2.253v1.224a2.253,2.253,0,0,0,2.229,2.253H59.137a2.253,2.253,0,0,0,2.253-2.253V20.294a2.253,2.253,0,0,0-2.253-2.253Z" transform="translate(19.416 17.822)" fill="#b39ddb"/>
    <path id="Path_13193" data-name="Path 13193" d="M17.524,19.955H55.312a10.286,10.286,0,0,1,1.518.147,22.457,22.457,0,0,0-40.8,0,9.967,9.967,0,0,1,1.494-.147Z" transform="translate(23.241 10.178)" fill="#5e35b1"/>
  </g>
</svg>
