<svg xmlns="http://www.w3.org/2000/svg" width="70.749" height="82.967" viewBox="0 0 70.749 82.967">
  <g id="Office_icon" data-name="Office icon" transform="translate(-24.784 -18.772)">
    <path id="Path_13180" data-name="Path 13180" d="M11.914,24.48H22.386a1.868,1.868,0,0,1,1.844,1.844V66.1H10.07V26.324A1.868,1.868,0,0,1,11.914,24.48Z" transform="translate(14.714 35.64)" fill="#ef8ebb"/>
    <path id="Path_13181" data-name="Path 13181" d="M35.021,24.39H45.1a1.844,1.844,0,0,1,1.844,1.844v40H33.3v-40a1.844,1.844,0,0,1,1.721-1.844Z" transform="translate(48.59 35.509)" fill="#ef8ebb"/>
    <path id="Path_13182" data-name="Path 13182" d="M48.272,14.936H42V9.43a1.77,1.77,0,0,0-1.77-1.77H27.746a1.77,1.77,0,0,0-1.77,1.77v5.507h-6.17a1.745,1.745,0,0,0-1.745,1.77v73.92H50.018V16.706a1.77,1.77,0,0,0-1.746-1.77ZM30.2,60.66H24.845V53.285H30.2Zm0-14.184H24.845V39.1H30.2Zm0-14.184H24.845V24.917H30.2ZM43.233,60.66H37.775V53.285h5.457Zm0-14.184H37.775V39.1h5.457Zm0-14.184H37.775V24.917h5.457Z" transform="translate(26.365 11.112)" fill="#d6006d"/>
  </g>
</svg>
