<svg xmlns="http://www.w3.org/2000/svg" width="96.692" height="95.08" viewBox="0 0 96.692 95.08">
  <g id="Planet_icon" data-name="Planet icon" transform="translate(-11.751 -11.522)">
    <path id="Path_13176" data-name="Path 13176" d="M53.136,99.86c-26.7,0-48.346-21.284-48.346-47.54S26.435,4.78,53.136,4.78s48.346,21.284,48.346,47.54c-.027,26.245-21.656,47.513-48.346,47.54Zm0-87.82c-22.64,0-40.992,18.05-40.987,40.312s18.356,40.3,41,40.3S94.137,74.582,94.123,52.32C94.082,30.081,75.752,12.067,53.136,12.04Z" transform="translate(6.961 6.742)" fill="#b39ddb"/>
    <path id="Path_13177" data-name="Path 13177" d="M54.346,19.206l-3.925,1.785a2.341,2.341,0,0,1-1.619.145l-8.56-2.1a2.464,2.464,0,0,1-1.128-.627L35.8,15.154a2.473,2.473,0,0,0-1.742-.724H28.468a2.477,2.477,0,0,0-1.619.6l-2.943,2.581a2.393,2.393,0,0,0-.834,1.93l.392,8.321a2.41,2.41,0,0,0,1.349,2.05l8.806,4.317a2.491,2.491,0,0,0,1.938.121l3.336-1.182a2.488,2.488,0,0,1,2.257.289l2.919,2a2.4,2.4,0,0,1,1.055,1.978v3.184a2.615,2.615,0,0,0,.2.965l4.17,9.648a2.381,2.381,0,0,1,.2.7l.76,7.236a2.428,2.428,0,0,0,1.962,2.1l1.03.217a34.351,34.351,0,0,0,2.453-42.378A2.492,2.492,0,0,0,54.346,19.206Z" transform="translate(33.518 20.368)" fill="#5e35b1"/>
    <path id="Path_13178" data-name="Path 13178" d="M45.661,49.186c-2.453-1.11-5.593-2.412-5.813-2.412-.809,0-1.962,1.688-2.649.6a2.035,2.035,0,0,1,.392-1.568,2.915,2.915,0,0,0-1.1-3.618c-2.183-1.4-7.9-1.688-9.811-2.412a3.863,3.863,0,0,0-4.906,1.375,10.154,10.154,0,0,0-.736,1.3l-2.5-.844-.883-1.5a3.565,3.565,0,0,1-.27-3.039l.834-2.219A2.84,2.84,0,0,1,21.133,33.6l1.889.314a4.143,4.143,0,0,0,3.508-1.013l7.211-6.657V23.836L36,21.786l2.453.338,1.5-2.677-4.709-2.412L30.184,20.17l-.589-2.75,4.489-2.894,3.238.724,2.453-1.423L37.592,10.45a39.673,39.673,0,0,0-12.632,4.51A35.132,35.132,0,0,0,10.88,32.351l.834,2a4.419,4.419,0,0,1,.343,2.026l-.221,4.679a2.859,2.859,0,0,0,1.447,2.6l6.255,3.618c-.123.386-.245.772-.392,1.134a4.4,4.4,0,0,0,.343,4.124s6.083,7.549,7.359,8.78c1.643,1.64,1.889,10.106,2.453,12.3A7.67,7.67,0,0,0,30.4,76.3a4.1,4.1,0,0,0,2.845.844,3.228,3.228,0,0,0,1.619-.892c.368-.458,5.225-6.464,5.74-7.236s4.611-9.527,7.015-14.665a3.753,3.753,0,0,0,.141-2.993A3.839,3.839,0,0,0,45.661,49.186Z" transform="translate(15.809 14.748)" fill="#5e35b1"/>
    <path id="Path_13179" data-name="Path 13179" d="M31.448,12.118l-3.409-.555a1.113,1.113,0,0,0-1.055.41l-1.423,1.785a1.1,1.1,0,0,0-.225.848,1.107,1.107,0,0,0,.471.744l2.257,1.568a1.094,1.094,0,0,0,.908.169l3.949-.892a1.3,1.3,0,0,1,.613,0L40.5,18.486a1.246,1.246,0,0,0,.834,0l2.821-1.3a1.106,1.106,0,0,0,.613-1.085,34.942,34.942,0,0,0-9.811-5.258L32.11,12.046A1.42,1.42,0,0,1,31.448,12.118Z" transform="translate(36.793 15.299)" fill="#5e35b1"/>
  </g>
</svg>
