<svg xmlns="http://www.w3.org/2000/svg" width="83.835" height="83.627" viewBox="0 0 83.835 83.627">
  <g id="Rocket_icon" data-name="Rocket icon" transform="translate(-18.108 -18.216)">
    <path id="Exclusion_2" data-name="Exclusion 2" d="M-2767.283-15745h0l-7.347-7.348,3.062-3.011-21.015-21.284-3.058,3.015-7.348-7.349,11.9-11.558a4.917,4.917,0,0,1,3.539-1.514,4.93,4.93,0,0,1,3.539,1.514l2.447,2.446,18.783-18.413a61.57,61.57,0,0,1,17.684-12.134,61.556,61.556,0,0,1,20.767-5.354h.365a2.163,2.163,0,0,1,.276-.018,2.179,2.179,0,0,1,1.5.6,2.176,2.176,0,0,1,.671,1.744,61.747,61.747,0,0,1-18.318,39.182l-18.294,17.953,2.792,2.645a4.927,4.927,0,0,1,1.509,3.539,4.927,4.927,0,0,1-1.509,3.539l-11.95,11.8Zm3.551-47.292a7.283,7.283,0,0,0-7.272,7.276,7.281,7.281,0,0,0,7.272,7.272,7.281,7.281,0,0,0,7.272-7.272A7.283,7.283,0,0,0-2763.732-15792.3Zm17.655-16.626a7.281,7.281,0,0,0-7.272,7.272,7.283,7.283,0,0,0,7.272,7.276,7.285,7.285,0,0,0,7.276-7.276A7.283,7.283,0,0,0-2746.078-15808.922Z" transform="translate(2823.449 15844.227)" fill="#d6106d"/>
    <path id="Path_13195" data-name="Path 13195" d="M18.959,32.244h0a13.469,13.469,0,0,1,11.216,10.7h0a7.518,7.518,0,0,1-5.853,8.816L7.4,55.215,11.049,37.73a7.053,7.053,0,0,1,7.91-5.486Z" transform="translate(10.708 46.628)" fill="#ef8ebb"/>
  </g>
</svg>
